<?xml version="1.0" standalone="no"?>
<!DOCTYPE svg PUBLIC "-//W3C//DTD SVG 20010904//EN"
 "http://www.w3.org/TR/2001/REC-SVG-20010904/DTD/svg10.dtd">
<svg version="1.0" xmlns="http://www.w3.org/2000/svg"
 width="1024.000000pt" height="1024.000000pt" viewBox="0 0 1024.000000 1024.000000"
 preserveAspectRatio="xMidYMid meet">

<g transform="translate(0.000000,1024.000000) scale(0.100000,-0.100000)"
fill="#000000" stroke="none">
<path d="M5115 8230 c3 -5 24 -10 46 -10 32 0 39 -4 39 -19 0 -23 -33 -29
-160 -30 -68 -1 -96 4 -147 24 -62 25 -64 26 -141 11 -83 -16 -241 -62 -251
-72 -3 -4 10 -4 29 -1 28 5 31 4 17 -4 -11 -6 -29 -9 -43 -6 -14 2 -21 0 -17
-6 4 -7 -1 -8 -12 -3 -14 5 -16 4 -6 -7 8 -11 5 -21 -18 -45 -33 -34 -76 -47
-113 -33 -21 8 -37 1 -116 -49 -121 -78 -334 -282 -268 -257 11 4 15 3 11 -4
-4 -6 -13 -8 -21 -5 -7 3 -23 -7 -34 -22 -72 -93 -101 -135 -136 -196 -21 -38
-51 -90 -66 -115 -72 -125 -107 -224 -108 -308 0 -36 -3 -43 -19 -43 -21 0
-19 8 -52 -175 -17 -98 -20 -143 -16 -246 6 -118 40 -318 73 -427 20 -69 -6
-176 -38 -156 -21 14 -3 -51 41 -143 146 -303 371 -551 657 -724 180 -108 357
-175 574 -216 133 -25 468 -25 592 0 239 48 449 129 605 234 352 235 580 533
707 922 61 186 81 322 80 546 0 212 -21 343 -82 526 -96 285 -290 573 -506
748 -39 32 -83 66 -98 75 l-27 18 8 -30 c8 -26 6 -31 -12 -36 -56 -15 -83 -7
-186 55 -159 95 -476 215 -576 217 -11 0 -38 5 -60 11 -52 14 -158 14 -150 1z
m-297 -77 c-10 -2 -28 -2 -40 0 -13 2 -5 4 17 4 22 1 32 -1 23 -4z m-71 -19
c-3 -3 -12 -4 -19 -1 -8 3 -5 6 6 6 11 1 17 -2 13 -5z m918 -54 c13 -5 14 -9
5 -9 -8 0 -24 4 -35 9 -13 5 -14 9 -5 9 8 0 24 -4 35 -9z m125 -243 c0 -7 42
-67 93 -134 278 -366 425 -561 442 -587 19 -29 19 -29 0 -18 -11 5 -42 13 -70
17 -27 4 -55 11 -60 16 -6 4 -20 8 -30 7 -11 -1 -55 2 -97 6 -43 4 -78 4 -78
1 0 -4 14 -32 31 -62 29 -50 30 -58 25 -121 -4 -37 -13 -89 -21 -117 l-15 -50
3 43 c2 27 -2 42 -9 42 -7 0 -15 11 -18 25 -9 36 -66 31 -66 -6 0 -10 -4 -19
-10 -19 -5 0 -12 -11 -16 -25 -3 -14 -10 -22 -15 -19 -5 3 -9 -16 -9 -42 0
-33 -5 -51 -19 -63 -13 -12 -19 -35 -23 -90 -4 -47 -10 -76 -19 -82 -10 -6
-14 -36 -15 -116 0 -59 -1 -300 -2 -536 l-2 -427 -115 -75 c-78 -51 -119 -83
-125 -101 -6 -15 -12 -25 -15 -23 -10 11 -22 721 -24 1401 l-1 367 -22 7 c-35
12 -166 5 -220 -11 -26 -7 -48 -12 -48 -9 0 17 70 138 142 244 221 327 266
391 331 469 38 47 71 91 74 98 6 15 23 8 23 -10z m-1657 -337 c120 -41 190
-77 268 -139 l47 -36 5 -315 c2 -175 9 -333 15 -355 6 -22 10 -41 8 -42 -2 -2
-36 12 -77 31 -85 39 -243 88 -341 107 l-68 13 0 388 c0 324 2 388 14 388 8 0
66 -18 129 -40z m843 -348 l-1 -389 -120 -27 c-155 -36 -256 -69 -305 -102
-22 -15 -41 -25 -43 -23 -1 2 -1 167 1 366 4 362 4 362 25 369 12 3 38 21 57
39 44 42 168 99 280 130 47 12 90 23 96 24 9 1 11 -101 10 -387z m-1062 217
c3 -17 6 -163 6 -323 0 -160 3 -307 6 -327 l6 -35 76 -13 c93 -16 342 -85 385
-108 18 -9 42 -24 55 -34 22 -17 25 -16 105 21 99 46 181 70 352 105 72 15
135 31 140 36 6 7 9 130 6 346 -3 369 -6 353 59 353 l35 0 -7 -177 c-3 -98
-10 -193 -13 -211 -6 -24 -3 -36 8 -45 13 -10 16 -47 19 -207 l3 -195 -120 -1
c-177 -1 -373 -48 -509 -122 -46 -24 -57 -27 -67 -16 -13 16 -195 87 -276 108
-77 20 -268 39 -318 31 l-40 -5 2 162 c2 90 6 281 9 426 l6 262 33 0 c28 0 33
-4 39 -31z m1973 -591 c-3 -7 -5 -2 -5 12 0 14 2 19 5 13 2 -7 2 -19 0 -25z
m-529 -379 c-13 -23 -50 -66 -82 -95 -33 -30 -53 -54 -45 -55 10 0 10 -2 2 -6
-18 -7 -16 -40 2 -46 8 -4 22 -32 31 -64 9 -32 21 -63 26 -70 10 -13 -4 -44
-37 -78 -46 -48 -46 -48 -666 -40 -472 6 -580 5 -574 -5 6 -10 1 -12 -25 -7
-18 4 -51 7 -74 7 -39 1 -43 3 -96 75 -30 42 -54 83 -52 93 2 9 26 52 54 95
l51 77 626 0 c547 0 634 2 682 16 60 18 138 70 170 115 30 42 34 36 7 -12z
m1234 -104 c-3 -38 -1 -55 7 -55 7 0 9 -5 4 -12 -4 -7 -8 -30 -8 -51 -1 -27 1
-33 8 -21 5 8 7 24 4 35 -3 10 -1 17 3 14 5 -3 10 0 13 7 2 7 2 0 -1 -17 -7
-50 -80 -235 -121 -310 -77 -139 -175 -270 -291 -386 -108 -109 -173 -159
-184 -141 -2 4 2 16 10 27 10 14 14 15 15 4 0 -10 2 -10 6 -1 2 6 9 10 13 7 5
-3 11 -2 14 3 11 18 -48 11 -61 -8 -9 -12 -20 -17 -31 -13 -9 3 -14 2 -9 -2 7
-8 -52 -40 -59 -32 -2 2 24 23 58 47 141 102 285 252 381 397 34 51 64 87 68
82 4 -7 9 -4 12 6 4 9 3 13 -3 10 -14 -9 -15 -10 40 116 28 64 62 165 77 231
16 65 31 118 34 118 3 0 4 -25 1 -55z m-1163 -388 c-77 -73 -149 -111 -263
-139 l-81 -21 -24 -49 c-16 -35 -32 -53 -52 -60 -16 -5 -29 -16 -29 -24 0 -8
-9 -14 -20 -14 -14 0 -20 -7 -20 -21 0 -30 -25 -50 -64 -52 -19 -1 -32 -5 -29
-9 2 -5 -6 -8 -19 -8 -13 0 -68 -3 -123 -7 -232 -16 -398 1 -485 50 -61 35
-250 217 -250 242 0 3 4 4 9 1 5 -4 11 0 14 6 3 10 135 13 623 13 451 0 628 3
652 12 45 16 92 46 154 99 79 65 83 52 7 -19z m231 -541 c0 -2 -7 -7 -16 -10
-8 -3 -12 -2 -9 4 6 10 25 14 25 6z m250 -31 c0 -2 -10 -9 -22 -15 -22 -11
-22 -10 -4 4 21 17 26 19 26 11z m-150 -149 c0 -2 -7 -7 -16 -10 -8 -3 -12 -2
-9 4 6 10 25 14 25 6z m-323 -42 c-3 -3 -12 -4 -19 -1 -8 3 -5 6 6 6 11 1 17
-2 13 -5z m-44 -11 c-7 -2 -21 -2 -30 0 -10 3 -4 5 12 5 17 0 24 -2 18 -5z
m120 -40 c-7 -2 -19 -2 -25 0 -7 3 -2 5 12 5 14 0 19 -2 13 -5z"/>
<path d="M5970 7435 c0 -8 5 -15 10 -15 6 0 10 7 10 15 0 8 -4 15 -10 15 -5 0
-10 -7 -10 -15z"/>
<path d="M6032 7348 c2 -12 10 -23 18 -23 22 0 19 39 -3 43 -15 3 -18 -1 -15
-20z"/>
<path d="M6080 7287 c0 -8 7 -21 16 -28 14 -11 15 -10 12 11 -3 26 -28 41 -28
17z"/>
<path d="M5445 7130 c-14 -5 3 -9 53 -11 51 -3 77 0 84 9 8 9 -3 12 -53 11
-35 0 -73 -4 -84 -9z"/>
<path d="M5793 7040 c0 -47 2 -66 4 -42 2 23 2 61 0 85 -2 23 -4 4 -4 -43z"/>
<path d="M5792 6850 c0 -14 2 -19 5 -12 2 6 2 18 0 25 -3 6 -5 1 -5 -13z"/>
<path d="M4102 7339 c2 -6 36 -22 74 -35 39 -12 97 -38 130 -58 32 -19 60 -31
62 -26 13 37 -83 94 -180 106 -29 4 -61 11 -72 16 -13 7 -17 7 -14 -3z"/>
<path d="M4090 7085 c0 -8 9 -15 20 -15 11 0 20 2 20 5 0 2 -9 9 -20 15 -16 9
-20 8 -20 -5z"/>
<path d="M4201 7055 c19 -7 55 -23 80 -35 43 -22 43 -22 25 -2 -10 11 -39 28
-64 36 -55 19 -92 20 -41 1z"/>
<path d="M4090 6941 c0 -15 22 -27 93 -50 38 -12 92 -36 120 -54 85 -54 80
-52 72 -26 -16 54 -82 96 -185 118 -96 21 -100 22 -100 12z"/>
<path d="M6100 5440 c0 -5 5 -10 11 -10 5 0 7 5 4 10 -3 6 -8 10 -11 10 -2 0
-4 -4 -4 -10z"/>
<path d="M4880 5550 c0 -5 7 -10 15 -10 8 0 15 5 15 10 0 6 -7 10 -15 10 -8 0
-15 -4 -15 -10z"/>
<path d="M4388 8084 c-37 -19 -36 -25 2 -11 17 6 30 15 30 19 0 10 0 10 -32
-8z"/>
<path d="M4335 8050 c-3 -5 -1 -10 4 -10 6 0 11 5 11 10 0 6 -2 10 -4 10 -3 0
-8 -4 -11 -10z"/>
<path d="M2416 4592 c-2 -4 -14 -32 -25 -61 -15 -41 -18 -58 -9 -68 6 -7 7
-17 3 -21 -4 -4 -10 -1 -12 6 -5 12 -26 -21 -95 -143 -9 -16 -43 -75 -75 -130
-31 -55 -133 -251 -225 -435 -93 -184 -211 -416 -263 -515 -51 -99 -94 -183
-94 -187 -1 -5 86 -8 192 -8 l194 0 69 116 69 116 290 4 290 5 63 -115 62
-114 83 -7 c45 -3 141 -5 214 -3 l132 3 -57 97 c-106 180 -226 402 -340 628
-111 218 -137 268 -292 545 -40 72 -90 167 -111 213 -35 76 -50 94 -63 74z
m84 -879 c17 -35 30 -65 30 -68 0 -3 -45 -5 -101 -5 l-100 0 52 100 52 99 19
-32 c10 -18 32 -60 48 -94z"/>
<path d="M3506 4488 c4 -13 7 -29 7 -35 0 -7 5 -13 11 -13 6 0 5 -4 -3 -9 -11
-7 -11 -10 0 -17 7 -4 14 -3 17 4 3 9 7 8 15 -1 57 -62 61 -68 44 -61 -9 3
-17 10 -17 16 0 5 -4 7 -9 3 -6 -3 -13 1 -18 8 -4 7 -16 16 -25 20 -17 6 -18
-33 -20 -678 l-3 -685 35 -2 c19 -1 105 -2 190 -3 l155 0 -3 290 c-2 160 -1
324 3 365 l7 75 24 -30 c13 -16 99 -131 190 -255 91 -124 170 -226 174 -228 4
-2 45 50 89 116 71 103 164 226 260 342 16 19 32 31 37 27 10 -10 26 -405 22
-570 l-3 -127 195 0 196 0 -8 83 c-4 45 -8 366 -7 712 0 347 0 640 0 653 -1
22 -1 22 -174 22 l-173 0 -52 -88 c-29 -49 -52 -93 -52 -98 0 -6 -12 -21 -26
-35 -14 -13 -35 -39 -47 -59 -11 -19 -24 -37 -27 -40 -4 -3 -59 -85 -124 -183
l-117 -179 -136 214 c-74 117 -173 270 -220 341 l-85 127 -164 0 -165 0 7 -22z
m164 -203 c11 -13 10 -14 -4 -9 -9 3 -16 10 -16 15 0 13 6 11 20 -6z"/>
<path d="M6550 4494 c0 -21 -38 -60 -129 -134 l-54 -44 -161 -2 c-195 -2 -515
-14 -538 -20 -15 -4 -16 -30 -13 -287 2 -155 2 -301 -1 -323 l-6 -41 -90 -28
c-50 -14 -99 -25 -109 -22 -18 5 -19 -8 -21 -273 l-3 -279 29 -5 c16 -3 269
-6 562 -6 l534 0 2 155 c1 85 2 163 2 173 1 16 -25 17 -374 22 l-375 5 -3 106
-3 106 304 7 c167 4 316 4 331 0 l28 -7 -6 119 c-4 66 -9 140 -12 167 l-6 47
-50 -45 c-28 -25 -54 -45 -58 -45 -4 0 -15 -16 -25 -36 -9 -19 -22 -37 -28
-39 -7 -3 -144 -6 -305 -7 l-292 -3 0 26 c0 19 8 29 35 42 42 20 125 94 125
112 0 7 -9 15 -20 18 -19 5 -21 12 -18 104 l3 98 65 6 c36 4 203 7 371 8 l306
1 5 168 c3 92 4 169 2 171 -2 2 -4 -5 -4 -15z"/>
<path d="M7220 4478 c0 -20 -5 -38 -11 -40 -5 -2 -13 -22 -16 -44 -7 -55 26
-126 132 -278 104 -149 105 -150 132 -164 35 -19 42 -15 53 31 5 23 15 57 21
75 10 31 9 37 -18 65 -26 28 -120 155 -218 292 -16 23 -40 55 -52 71 l-22 29
-1 -37z"/>
<path d="M8225 4489 c-68 -36 -159 -115 -221 -190 -103 -125 -134 -162 -224
-259 -151 -164 -211 -234 -226 -263 -34 -64 -320 -418 -426 -527 -28 -29 -66
-55 -103 -70 -64 -26 -174 -87 -215 -120 l-25 -20 202 0 201 0 21 36 c12 19
49 72 84 117 34 44 93 122 131 171 37 50 89 114 115 142 25 27 75 85 109 128
35 43 65 76 67 74 1 -2 5 -34 8 -72 l5 -68 -45 6 c-48 6 -63 -3 -98 -56 -9
-15 -21 -25 -26 -22 -40 24 88 -159 278 -398 l54 -68 215 0 c187 0 215 2 210
15 -6 18 -237 338 -405 565 -68 91 -125 170 -128 177 -5 12 75 125 205 294
190 244 224 292 275 382 32 53 24 59 -38 26z"/>
<path d="M8415 3396 c-73 -34 -113 -112 -93 -184 13 -49 86 -119 133 -128 73
-13 148 20 193 86 43 63 14 150 -71 213 -33 26 -121 33 -162 13z m116 -27 c26
-14 92 -86 102 -111 8 -22 -20 -95 -44 -115 -36 -30 -159 -38 -159 -11 0 20
42 68 59 68 10 0 26 -9 35 -19 16 -18 56 -35 56 -24 0 2 -10 27 -21 54 -19 44
-20 53 -8 77 7 15 15 30 17 35 2 4 -5 7 -16 7 -23 0 -46 -24 -62 -65 -7 -17
-14 -25 -17 -17 -3 7 0 26 7 42 15 37 7 50 -32 50 l-31 0 7 -49 c8 -60 -3
-163 -16 -155 -17 11 -48 87 -48 119 0 81 104 150 171 114z"/>
<path d="M6833 2746 c-59 -19 -99 -50 -130 -104 -52 -89 -31 -214 49 -289 33
-31 90 -53 138 -53 52 0 136 32 172 67 26 25 28 32 28 103 l0 77 -87 6 c-97 6
-103 3 -103 -51 l0 -34 40 7 c33 6 41 4 47 -11 16 -43 -86 -72 -147 -41 -32
16 -60 71 -60 118 0 71 74 127 143 108 20 -5 39 -14 42 -19 12 -19 46 -9 82
24 l37 34 -44 22 c-42 22 -133 50 -155 49 -5 0 -29 -6 -52 -13z"/>
<path d="M3080 2700 l0 -50 64 0 64 0 7 -170 7 -170 52 0 51 0 -3 170 -3 170
66 0 65 0 0 50 0 50 -185 0 -185 0 0 -50z"/>
<path d="M3640 2531 l0 -219 55 -4 55 -3 0 68 c0 67 0 67 28 67 30 0 61 -27
105 -94 25 -38 28 -39 86 -40 34 -1 61 -1 61 1 0 1 -23 36 -51 78 l-51 75 26
21 c74 58 74 150 -1 221 -42 40 -74 48 -199 48 l-114 0 0 -219z m238 103 c14
-10 22 -26 22 -44 0 -40 -32 -60 -96 -60 -50 0 -52 1 -58 31 -3 17 -6 44 -6
60 0 29 1 29 58 29 36 0 66 -6 80 -16z"/>
<path d="M4338 2670 c-72 -147 -147 -315 -153 -340 -6 -25 -5 -25 52 -25 l57
0 9 38 c9 36 10 37 57 37 26 0 68 3 94 6 l46 7 18 -42 17 -41 63 0 c35 0 61 3
59 8 -3 4 -41 84 -86 177 -117 246 -113 239 -158 245 l-39 6 -36 -76z m116
-167 c7 -22 5 -23 -44 -23 -49 0 -51 1 -45 23 4 12 16 37 28 56 l20 34 17 -34
c10 -19 21 -44 24 -56z"/>
<path d="M4820 2529 l0 -216 38 -6 c20 -2 44 -6 52 -8 8 -2 15 2 14 9 -1 6 -2
106 -2 221 l-2 209 -50 4 -50 3 0 -216z"/>
<path d="M5434 2741 c-2 -2 -4 -38 -5 -80 0 -42 -4 -96 -7 -121 l-7 -45 -25
35 c-13 19 -60 74 -103 123 -70 77 -82 87 -113 87 l-34 0 0 -215 0 -215 28 0
c15 0 37 -3 50 -6 22 -6 22 -6 22 116 0 123 0 123 20 105 15 -13 171 -202 175
-211 0 -1 23 -4 50 -8 l50 -6 -8 112 c-4 62 -7 161 -5 220 l3 106 -43 4 c-24
2 -45 1 -48 -1z"/>
<path d="M5747 2653 c-9 -123 -9 -257 -1 -305 6 -35 8 -36 55 -40 l49 -3 0
216 0 216 -37 7 c-21 3 -43 6 -49 6 -7 0 -13 -37 -17 -97z"/>
<path d="M6089 2738 c-2 -7 -3 -106 -1 -220 l3 -208 47 0 47 0 -3 117 -2 118
65 -70 c36 -38 82 -91 102 -117 34 -44 41 -48 80 -48 l43 0 0 204 c0 112 3
211 6 220 5 13 -3 16 -50 16 l-56 0 0 -120 c0 -73 -4 -120 -10 -120 -5 0 -10
3 -10 8 0 4 -22 30 -48 57 -26 28 -71 79 -100 113 -42 48 -60 62 -82 62 -15 0
-29 -6 -31 -12z"/>
<path d="M7370 2534 l0 -46 368 5 c202 3 368 6 370 6 1 1 2 19 2 41 l0 40
-322 0 c-178 0 -340 -4 -360 -9 -22 -5 -36 -5 -32 0 3 5 -2 9 -10 9 -12 0 -16
-11 -16 -46z"/>
<path d="M2826 2553 c-7 -21 -39 -37 -96 -46 -14 -2 3 -5 37 -6 59 -1 63 1 69
24 8 32 -1 57 -10 28z"/>
<path d="M2590 2508 c0 -4 -80 -9 -177 -11 -143 -2 -134 -3 47 -2 147 0 223 3
220 10 -6 11 -90 14 -90 3z m83 -5 c-7 -2 -19 -2 -25 0 -7 3 -2 5 12 5 14 0
19 -2 13 -5z"/>
<path d="M3536 2124 c-13 -33 -7 -40 29 -36 l35 4 0 -101 c0 -94 1 -101 20
-101 19 0 20 7 20 100 l0 100 40 0 c36 0 40 3 40 25 0 25 -1 25 -89 25 -72 0
-90 -3 -95 -16z"/>
<path d="M3882 2127 c-66 -37 -76 -135 -18 -193 28 -28 42 -34 76 -34 36 0 48
6 81 39 44 43 51 88 24 141 -27 53 -109 76 -163 47z m99 -56 c16 -16 29 -40
29 -52 0 -32 -38 -69 -71 -69 -31 0 -69 40 -69 72 0 21 51 78 70 78 6 0 25
-13 41 -29z"/>
<path d="M4183 2018 c3 -68 8 -122 11 -120 3 1 11 2 16 2 6 0 10 31 10 73 l0
72 31 -52 c17 -29 34 -53 38 -53 4 0 14 12 24 28 9 15 25 38 36 51 l19 25 -2
-75 c-1 -67 1 -74 19 -77 20 -3 21 3 24 114 3 118 -1 133 -36 134 -6 0 -26
-25 -43 -55 -17 -30 -36 -53 -41 -49 -5 3 -18 23 -30 45 -16 33 -50 59 -76 59
-3 0 -3 -55 0 -122z"/>
<path d="M4550 2034 c0 -116 4 -134 31 -134 15 0 19 7 19 39 0 37 1 39 39 45
65 10 91 69 52 117 -14 18 -32 24 -80 29 l-61 6 0 -102z m91 56 c25 -14 25
-56 0 -63 -24 -6 -37 2 -45 30 -12 39 7 53 45 33z"/>
<path d="M4820 2021 c0 -120 10 -153 28 -88 5 17 7 63 6 101 -2 40 1 75 8 83
7 9 7 13 0 13 -6 0 -17 3 -26 6 -14 5 -16 -9 -16 -115z"/>
<path d="M5100 2131 c0 -5 20 -36 45 -69 40 -53 45 -66 45 -111 0 -45 2 -51
21 -51 11 0 17 4 14 10 -14 23 8 111 40 164 18 31 29 58 24 61 -10 7 -49 -12
-49 -23 0 -5 -11 -23 -24 -41 l-24 -32 -22 38 c-31 51 -70 81 -70 54z"/>
<path d="M5735 2127 c-2 -7 -6 -28 -7 -47 -3 -34 -4 -35 -50 -38 l-48 -3 0 45
c0 42 -2 46 -25 46 l-25 0 0 -115 0 -115 25 0 c23 0 25 3 25 50 l0 50 50 0 50
0 0 -50 c0 -42 3 -50 19 -50 15 0 19 10 25 53 3 28 6 80 6 113 0 54 -3 62 -21
67 -11 3 -22 0 -24 -6z"/>
<path d="M5920 2015 l0 -115 75 0 c73 0 75 1 75 25 0 23 -3 25 -50 25 -47 0
-50 2 -50 25 0 23 4 25 40 25 33 0 40 3 40 20 0 17 -7 20 -46 20 -44 0 -45 1
-42 28 3 25 7 27 56 30 37 2 52 7 52 18 0 11 -16 14 -75 14 l-75 0 0 -115z"/>
<path d="M6202 2015 c3 -109 4 -115 23 -113 15 2 21 12 23 41 4 46 25 49 52 5
l19 -31 7 29 c7 27 20 43 36 44 4 0 8 -19 10 -42 2 -23 8 -43 13 -45 14 -4 17
157 3 184 -14 27 -63 43 -136 43 l-53 0 3 -115z m123 40 c0 -28 -3 -30 -35
-30 -32 0 -35 3 -38 33 -3 33 -3 33 35 30 35 -3 38 -5 38 -33z"/>
<path d="M6540 2013 l0 -118 78 3 c78 3 79 4 74 28 -4 21 -9 24 -53 24 -46 0
-49 2 -49 25 0 23 4 25 45 25 33 0 45 4 45 15 0 11 -12 15 -45 15 -45 0 -45 0
-45 36 l0 36 57 -4 c48 -2 58 0 61 15 3 15 -6 17 -82 17 l-86 0 0 -117z"/>
<path d="M4945 2067 c-13 -10 -16 -21 -11 -41 4 -18 3 -25 -4 -21 -6 4 -10 -4
-10 -20 0 -15 4 -24 10 -20 5 3 7 0 5 -7 -6 -15 20 -56 29 -47 11 11 20 169 9
169 -5 0 -17 -6 -28 -13z"/>
</g>
</svg>
